<mxfile host="app.diagrams.net" modified="2024-01-08T09:48:26.438Z" agent="Mozilla/5.0 (Macintosh; Intel Mac OS X 10_15_7) AppleWebKit/537.36 (KHTML, like Gecko) Chrome/120.0.0.0 Safari/537.36" version="22.1.16" etag="S3-H6kmRI8IRwfkOXQgg" type="github">
  <diagram name="第 1 页" id="wJkj5fOoJ11qg7BTNZWh">
    <mxGraphModel>
      <root>
        <mxCell id="0" />
        <mxCell id="1" parent="0" />
      </root>
    </mxGraphModel>
  </diagram>
</mxfile>
